<svg xmlns="http://www.w3.org/2000/svg" aria-hidden="true" style="position:absolute;width:0;height:0;overflow:hidden">
  <defs>
    <symbol id="icon-mail" viewBox="0 0 31 32">
      <path d="M25.858 5.926H5.171a2.589 2.589 0 0 0-2.586 2.586v15.515a2.589 2.589 0 0 0 2.586 2.586h20.687a2.589 2.589 0 0 0 2.586-2.586V8.512a2.589 2.589 0 0 0-2.586-2.586zm0 2.586v.661l-10.343 8.046L5.172 9.174v-.662h20.687zM5.172 24.027V12.448l9.55 7.428a1.283 1.283 0 0 0 1.588 0l9.55-7.428.003 11.579H5.174z"/>
    </symbol>
    <symbol id="icon-icon" viewBox="0 0 32 32">
      <path d="M24.135 17.438a1.652 1.652 0 0 0-1.16-.481 1.629 1.629 0 0 0-1.16.481l-2.616 2.616c-1.213-.361-3.476-1.182-4.91-2.616s-2.255-3.697-2.616-4.91l2.616-2.616a1.648 1.648 0 0 0 .356-1.788 1.652 1.652 0 0 0-.356-.532L7.725 1.028A1.648 1.648 0 0 0 5.937.672c-.199.083-.38.204-.532.356l-4.45 4.45a3.28 3.28 0 0 0-.962 2.355c.038 2.337.656 10.453 7.053 16.85s14.513 7.014 16.852 7.053h.046c.866 0 1.685-.341 2.306-.962l4.45-4.45a1.652 1.652 0 0 0 .481-1.16 1.633 1.633 0 0 0-.481-1.16l-6.564-6.566zm-.208 11.015c-2.048-.034-9.055-.584-14.561-6.091C3.842 16.838 3.307 9.807 3.275 7.8l3.29-3.29 4.244 4.244-2.122 2.122a1.645 1.645 0 0 0-.447 1.497c.039.189 1.003 4.664 3.727 7.388s7.199 3.687 7.388 3.727a1.626 1.626 0 0 0 1.496-.445l2.124-2.122 4.244 4.244-3.292 3.29z"/>
    </symbol>
    <symbol id="icon-map" viewBox="0 0 31 32">
      <path d="M15.515 18.855c2.852 0 5.172-2.32 5.172-5.172s-2.32-5.172-5.172-5.172-5.172 2.32-5.172 5.172 2.319 5.172 5.172 5.172zm0-7.757c1.426 0 2.586 1.16 2.586 2.586s-1.16 2.586-2.586 2.586-2.586-1.16-2.586-2.586 1.16-2.586 2.586-2.586z"/>
      <path d="M14.765 28.958a1.292 1.292 0 0 0 1.5 0c.393-.278 9.631-6.948 9.593-15.275 0-5.703-4.64-10.343-10.343-10.343S5.172 7.98 5.172 13.677c-.037 8.333 9.2 15.003 9.594 15.281zm.75-23.032c4.278 0 7.758 3.479 7.758 7.764.027 5.738-5.673 10.89-7.758 12.58-2.083-1.691-7.785-6.845-7.758-12.587 0-4.278 3.479-7.758 7.758-7.758z"/>
    </symbol>
    <symbol id="icon-star-outline" viewBox="0 0 24 24">
      <path d="M11.5312 3.80664C11.7032 3.39816 12.2968 3.39816 12.4688 3.80664L14.4971 8.625C14.7155 9.14358 15.2076 9.49471 15.7676 9.53906L21.0332 9.95605C21.4909 9.99232 21.6545 10.5412 21.3242 10.8213L17.3115 14.2168C16.8819 14.5804 16.6919 15.1542 16.8242 15.7021L18.0508 20.7783C18.1502 21.1902 17.6892 21.5518 17.291 21.3115H17.29L12.7832 18.5918C12.3023 18.3016 11.6977 18.3016 11.2168 18.5918L6.70898 21.3115C6.31078 21.5518 5.84983 21.1902 5.94922 20.7783L7.17578 15.7021C7.30809 15.1543 7.11814 14.5805 6.68848 14.2168L2.67578 10.8213C2.34544 10.5412 2.5091 9.99231 2.9668 9.95605L8.23242 9.53906C8.79243 9.49471 9.28456 9.14369 9.50293 8.625L11.5312 3.80664Z" stroke="#0B0803"/>
    </symbol>
    <symbol id="icon-star-filled" viewBox="0 0 24 24">
      <path d="M11.0709 3.61234C11.4146 2.79588 12.5854 2.79589 12.9291 3.61235L14.9579 8.43123C15.1029 8.77543 15.4306 9.01061 15.8067 9.0404L21.0727 9.45748C21.9649 9.52814 22.3267 10.6281 21.6469 11.2034L17.6348 14.5987C17.3482 14.8412 17.223 15.2218 17.3106 15.5843L18.5363 20.661C18.744 21.5211 17.7969 22.201 17.033 21.7401L12.5245 19.0196C12.2025 18.8252 11.7975 18.8252 11.4755 19.0196L6.96699 21.7401C6.20311 22.201 5.25596 21.5211 5.46363 20.661L6.68942 15.5843C6.77698 15.2218 6.65182 14.8412 6.36526 14.5987L2.35306 11.2034C1.67328 10.6281 2.03507 9.52814 2.92729 9.45748L8.19336 9.0404C8.5695 9.01061 8.89716 8.77543 9.04207 8.43123L11.0709 3.61234Z" fill="#0B0803"/>
    </symbol>
  </defs>
</svg>
